<mxfile host="65bd71144e">
    <diagram id="Oav6CaFZjOUy9QmDjczV" name="Page-1">
        <mxGraphModel dx="2049" dy="917" grid="1" gridSize="10" guides="1" tooltips="1" connect="1" arrows="1" fold="1" page="1" pageScale="1" pageWidth="827" pageHeight="1169" math="0" shadow="0">
            <root>
                <mxCell id="0"/>
                <mxCell id="1" parent="0"/>
                <mxCell id="2" value="ULevelSequencePlayer" style="html=1;" parent="1" vertex="1">
                    <mxGeometry x="49" y="230" width="160" height="50" as="geometry"/>
                </mxCell>
                <mxCell id="15" style="edgeStyle=orthogonalEdgeStyle;rounded=0;orthogonalLoop=1;jettySize=auto;html=1;exitX=1;exitY=0.5;exitDx=0;exitDy=0;entryX=0;entryY=0.5;entryDx=0;entryDy=0;" parent="1" source="4" target="13" edge="1">
                    <mxGeometry relative="1" as="geometry"/>
                </mxCell>
                <mxCell id="4" value="UMovieSceneSequencePlayer" style="html=1;" parent="1" vertex="1">
                    <mxGeometry x="24" y="120" width="210" height="50" as="geometry"/>
                </mxCell>
                <mxCell id="5" value="&amp;lt;&amp;lt;extend&amp;gt;&amp;gt;" style="html=1;verticalAlign=bottom;labelBackgroundColor=none;endArrow=open;endFill=0;dashed=1;exitX=0.5;exitY=0;exitDx=0;exitDy=0;entryX=0.5;entryY=1;entryDx=0;entryDy=0;" parent="1" source="2" target="4" edge="1">
                    <mxGeometry width="160" relative="1" as="geometry">
                        <mxPoint x="214" y="230" as="sourcePoint"/>
                        <mxPoint x="374" y="230" as="targetPoint"/>
                    </mxGeometry>
                </mxCell>
                <mxCell id="8" value="«interface»&lt;br&gt;&lt;b&gt;IMovieScenePlayer&lt;/b&gt;" style="html=1;" parent="1" vertex="1">
                    <mxGeometry x="64" y="20" width="130" height="50" as="geometry"/>
                </mxCell>
                <mxCell id="9" value="Extends" style="endArrow=block;endSize=16;endFill=0;html=1;exitX=0.5;exitY=0;exitDx=0;exitDy=0;entryX=0.5;entryY=1;entryDx=0;entryDy=0;" parent="1" source="4" target="8" edge="1">
                    <mxGeometry width="160" relative="1" as="geometry">
                        <mxPoint x="384" y="-30" as="sourcePoint"/>
                        <mxPoint x="544" y="-30" as="targetPoint"/>
                    </mxGeometry>
                </mxCell>
                <mxCell id="11" value="UMovieSceneSequencePlayer" style="swimlane;fontStyle=0;childLayout=stackLayout;horizontal=1;startSize=26;fillColor=none;horizontalStack=0;resizeParent=1;resizeParentMax=0;resizeLast=0;collapsible=1;marginBottom=0;" parent="1" vertex="1">
                    <mxGeometry x="274" y="80" width="220" height="104" as="geometry"/>
                </mxCell>
                <mxCell id="12" value="+ PlayTo" style="text;strokeColor=none;fillColor=none;align=left;verticalAlign=top;spacingLeft=4;spacingRight=4;overflow=hidden;rotatable=0;points=[[0,0.5],[1,0.5]];portConstraint=eastwest;" parent="11" vertex="1">
                    <mxGeometry y="26" width="220" height="26" as="geometry"/>
                </mxCell>
                <mxCell id="13" value="+ SetPlaybackPosition" style="text;strokeColor=none;fillColor=none;align=left;verticalAlign=top;spacingLeft=4;spacingRight=4;overflow=hidden;rotatable=0;points=[[0,0.5],[1,0.5]];portConstraint=eastwest;" parent="11" vertex="1">
                    <mxGeometry y="52" width="220" height="26" as="geometry"/>
                </mxCell>
                <mxCell id="14" value="+ ....&#10;" style="text;strokeColor=none;fillColor=none;align=left;verticalAlign=top;spacingLeft=4;spacingRight=4;overflow=hidden;rotatable=0;points=[[0,0.5],[1,0.5]];portConstraint=eastwest;" parent="11" vertex="1">
                    <mxGeometry y="78" width="220" height="26" as="geometry"/>
                </mxCell>
                <mxCell id="17" value="Use" style="endArrow=open;endSize=12;dashed=1;html=1;exitX=1;exitY=0.5;exitDx=0;exitDy=0;entryX=0;entryY=0.5;entryDx=0;entryDy=0;" parent="1" source="13" target="18" edge="1">
                    <mxGeometry width="160" relative="1" as="geometry">
                        <mxPoint x="604" y="170" as="sourcePoint"/>
                        <mxPoint x="584" y="145" as="targetPoint"/>
                    </mxGeometry>
                </mxCell>
                <mxCell id="18" value="FMovieSceneSequencePlaybackParams" style="html=1;" parent="1" vertex="1">
                    <mxGeometry x="564" y="120" width="240" height="50" as="geometry"/>
                </mxCell>
                <mxCell id="19" value="ULevelSequence" style="html=1;" parent="1" vertex="1">
                    <mxGeometry x="74" y="320" width="110" height="50" as="geometry"/>
                </mxCell>
                <mxCell id="25" value="" style="endArrow=open;html=1;endSize=12;startArrow=diamondThin;startSize=14;startFill=1;edgeStyle=orthogonalEdgeStyle;align=left;verticalAlign=bottom;exitX=0.5;exitY=1;exitDx=0;exitDy=0;" parent="1" source="2" edge="1">
                    <mxGeometry x="-1" y="3" relative="1" as="geometry">
                        <mxPoint x="290" y="330" as="sourcePoint"/>
                        <mxPoint x="129" y="320" as="targetPoint"/>
                    </mxGeometry>
                </mxCell>
                <mxCell id="29" value="Extends" style="endArrow=block;endSize=16;endFill=0;html=1;exitX=0;exitY=0.5;exitDx=0;exitDy=0;entryX=1;entryY=0.5;entryDx=0;entryDy=0;" parent="1" source="19" target="30" edge="1">
                    <mxGeometry width="160" relative="1" as="geometry">
                        <mxPoint x="140" y="410" as="sourcePoint"/>
                        <mxPoint x="-10" y="345" as="targetPoint"/>
                    </mxGeometry>
                </mxCell>
                <mxCell id="30" value="UMovieSceneSequence" style="html=1;" parent="1" vertex="1">
                    <mxGeometry x="-200" y="280" width="170" height="50" as="geometry"/>
                </mxCell>
                <mxCell id="31" value="«interface»&lt;br&gt;&lt;b&gt;IInterface_AssetUserData&lt;/b&gt;" style="html=1;" parent="1" vertex="1">
                    <mxGeometry x="-195" y="360" width="160" height="50" as="geometry"/>
                </mxCell>
                <mxCell id="32" value="Extends" style="endArrow=block;endSize=16;endFill=0;html=1;exitX=0;exitY=0.5;exitDx=0;exitDy=0;entryX=1;entryY=0.5;entryDx=0;entryDy=0;" parent="1" source="19" target="31" edge="1">
                    <mxGeometry width="160" relative="1" as="geometry">
                        <mxPoint x="94" y="419.9999999999999" as="sourcePoint"/>
                        <mxPoint x="-10" y="379.9999999999999" as="targetPoint"/>
                    </mxGeometry>
                </mxCell>
                <mxCell id="33" value="" style="endArrow=open;html=1;endSize=12;startArrow=diamondThin;startSize=14;startFill=1;edgeStyle=orthogonalEdgeStyle;align=left;verticalAlign=bottom;exitX=1;exitY=0.5;exitDx=0;exitDy=0;entryX=0;entryY=0.5;entryDx=0;entryDy=0;" parent="1" source="19" target="34" edge="1">
                    <mxGeometry x="-1" y="3" relative="1" as="geometry">
                        <mxPoint x="220" y="370" as="sourcePoint"/>
                        <mxPoint x="380" y="370" as="targetPoint"/>
                    </mxGeometry>
                </mxCell>
                <mxCell id="34" value="UMovieScene" style="html=1;" parent="1" vertex="1">
                    <mxGeometry x="250" y="320" width="110" height="50" as="geometry"/>
                </mxCell>
                <mxCell id="35" value="" style="endArrow=open;html=1;endSize=12;startArrow=diamondThin;startSize=14;startFill=1;edgeStyle=orthogonalEdgeStyle;align=left;verticalAlign=bottom;exitX=1;exitY=0.5;exitDx=0;exitDy=0;entryX=0;entryY=0.5;entryDx=0;entryDy=0;" parent="1" source="34" target="36" edge="1">
                    <mxGeometry x="-1" y="3" relative="1" as="geometry">
                        <mxPoint x="380" y="360" as="sourcePoint"/>
                        <mxPoint x="540" y="360" as="targetPoint"/>
                    </mxGeometry>
                </mxCell>
                <mxCell id="36" value="UMovieSceneTrack" style="html=1;" parent="1" vertex="1">
                    <mxGeometry x="430" y="320" width="120" height="50" as="geometry"/>
                </mxCell>
                <mxCell id="38" value="«interface»&lt;br&gt;&lt;b&gt;IMovieScenePlaybackClient&lt;/b&gt;" style="html=1;" vertex="1" parent="1">
                    <mxGeometry x="-605" y="190" width="180" height="50" as="geometry"/>
                </mxCell>
                <mxCell id="39" value="«interface»&lt;br&gt;&lt;b&gt;IMovieSceneBindingOwnerInterface&lt;/b&gt;" style="html=1;" vertex="1" parent="1">
                    <mxGeometry x="-630" y="260" width="230" height="50" as="geometry"/>
                </mxCell>
                <mxCell id="40" value="Actor" style="html=1;" vertex="1" parent="1">
                    <mxGeometry x="-570" y="120" width="110" height="50" as="geometry"/>
                </mxCell>
                <mxCell id="41" value="Extends" style="endArrow=block;endSize=16;endFill=0;html=1;exitX=0;exitY=0.25;exitDx=0;exitDy=0;entryX=1;entryY=0.5;entryDx=0;entryDy=0;" edge="1" parent="1" source="51" target="40">
                    <mxGeometry width="160" relative="1" as="geometry">
                        <mxPoint x="-211" y="182.5" as="sourcePoint"/>
                        <mxPoint x="-291" y="150" as="targetPoint"/>
                    </mxGeometry>
                </mxCell>
                <mxCell id="42" value="Extends" style="endArrow=block;endSize=16;endFill=0;html=1;exitX=0;exitY=0.5;exitDx=0;exitDy=0;entryX=1;entryY=0.5;entryDx=0;entryDy=0;" edge="1" parent="1" source="52" target="38">
                    <mxGeometry width="160" relative="1" as="geometry">
                        <mxPoint x="-211" y="195" as="sourcePoint"/>
                        <mxPoint x="-350" y="145" as="targetPoint"/>
                    </mxGeometry>
                </mxCell>
                <mxCell id="43" value="Extends" style="endArrow=block;endSize=16;endFill=0;html=1;exitX=0.016;exitY=0.039;exitDx=0;exitDy=0;entryX=1;entryY=0.5;entryDx=0;entryDy=0;exitPerimeter=0;" edge="1" parent="1" source="54" target="39">
                    <mxGeometry width="160" relative="1" as="geometry">
                        <mxPoint x="-211" y="207.5" as="sourcePoint"/>
                        <mxPoint x="-340" y="155" as="targetPoint"/>
                    </mxGeometry>
                </mxCell>
                <mxCell id="45" value="" style="endArrow=open;html=1;endSize=12;startArrow=diamondThin;startSize=14;startFill=1;edgeStyle=orthogonalEdgeStyle;align=left;verticalAlign=bottom;exitX=1;exitY=0.5;exitDx=0;exitDy=0;entryX=0;entryY=0.5;entryDx=0;entryDy=0;" edge="1" parent="1" source="52" target="4">
                    <mxGeometry x="-1" y="3" relative="1" as="geometry">
                        <mxPoint x="-65" y="145" as="sourcePoint"/>
                        <mxPoint x="30" y="145" as="targetPoint"/>
                    </mxGeometry>
                </mxCell>
                <mxCell id="51" value="LevelSequenceActor" style="swimlane;fontStyle=1;align=center;verticalAlign=top;childLayout=stackLayout;horizontal=1;startSize=26;horizontalStack=0;resizeParent=1;resizeParentMax=0;resizeLast=0;collapsible=1;marginBottom=0;" vertex="1" parent="1">
                    <mxGeometry x="-300" y="160" width="210" height="86" as="geometry"/>
                </mxCell>
                <mxCell id="52" value="+ LevelSequence: FSoftObjectPath" style="text;strokeColor=none;fillColor=none;align=left;verticalAlign=top;spacingLeft=4;spacingRight=4;overflow=hidden;rotatable=0;points=[[0,0.5],[1,0.5]];portConstraint=eastwest;" vertex="1" parent="51">
                    <mxGeometry y="26" width="210" height="26" as="geometry"/>
                </mxCell>
                <mxCell id="53" value="" style="line;strokeWidth=1;fillColor=none;align=left;verticalAlign=middle;spacingTop=-1;spacingLeft=3;spacingRight=3;rotatable=0;labelPosition=right;points=[];portConstraint=eastwest;" vertex="1" parent="51">
                    <mxGeometry y="52" width="210" height="8" as="geometry"/>
                </mxCell>
                <mxCell id="54" value="+ method(type): type" style="text;strokeColor=none;fillColor=none;align=left;verticalAlign=top;spacingLeft=4;spacingRight=4;overflow=hidden;rotatable=0;points=[[0,0.5],[1,0.5]];portConstraint=eastwest;" vertex="1" parent="51">
                    <mxGeometry y="60" width="210" height="26" as="geometry"/>
                </mxCell>
                <mxCell id="55" value="&lt;div&gt;FMovieSceneTimeController&lt;/div&gt;" style="html=1;" vertex="1" parent="1">
                    <mxGeometry x="320" y="580" width="190" height="50" as="geometry"/>
                </mxCell>
            </root>
        </mxGraphModel>
    </diagram>
</mxfile>